<svg version="1.1"
    width="100%" height="100%" 
    viewBox="0 0 534 29"
    preserveAspectRatio="none"
    xmlns="http://www.w3.org/2000/svg">
<desc>Created with Snap</desc>
<style>
    <!-- svg { background: pink; } -->
    polygon { filter: drop-shadow( 0px 3px 3px hsla(0, 0%, 0%, 0.2)); }
</style>
<polygon points="0,0,11 23,16 2,17 12,37 22,61 10,63 19,71 22,84 19,87 20,97 10,102 5,103 11,125 28,144 6,160 4,176 20,178 27,178 1,189 19,203 8,226 27,230 28,253 2,259 22,283 13,296 2,298 28,299 10,302 19,304 16,320 11,332 16,344 8,346 0,349 14,357 0,379 14,385 14,390 12,391 21,401 17,423 0,428 17,450 22,464 24,468 15,484 8,503 15,524 12,548 17,565 13,571 4,594 10,596 15,617 1,640 9,642 24,647 1,655 22,674 1,683 15,705 5,722 2,729 7,750 15 740 0" style="" fill="#fafafa"></polygon>
</svg>