<svg version="1.1"
     width="100%" height="100%"
     xmlns="http://www.w3.org/2000/svg">>
  <desc>Created with Snap</desc>
  <defs></defs>
  <path d="M0,0,2 7,6 14,24 4,43 9,43 14,56 10,59 23,64 19,70 16,81 18,83 0,88 3,101 6,125 18,142 26,166 2,172 9,181 10,192 14,200 26,224 22,227 8,231 23,252 29,261 2,268 19,273 21,286 0,286 6,302 13,312 20,333 26,345 20,350 18,361 17,364 8,379 17,379 6,402 27,416 9,431 27,435 12,455 6,475 12,493 6,498 13,518 12,537 19,542 4,549 22,564 25,576 1,591 15,615 13,627 21,644 3,659 22,666 2,687 18,692 22,693 15,717 14,725 15,739 3,762z"
  fill="transparent" stroke="gray" stroke-width="3"></path>
</svg>